<mxfile host="app.diagrams.net" modified="2022-07-26T13:42:05.013Z" agent="5.0 (Windows NT 10.0; Win64; x64) AppleWebKit/537.36 (KHTML, like Gecko) Chrome/103.0.0.0 Safari/537.36" etag="4kUJOa8Ue9AW_8q8LkxO" version="20.2.0" type="github">
  <diagram id="8fzv9Nd8Ul2_j6YnIrca" name="Page-1">
    <mxGraphModel dx="2062" dy="1122" grid="1" gridSize="10" guides="1" tooltips="1" connect="1" arrows="1" fold="1" page="1" pageScale="1" pageWidth="850" pageHeight="1100" math="0" shadow="0">
      <root>
        <mxCell id="0" />
        <mxCell id="1" parent="0" />
        <mxCell id="EXQrBoEiACjpLb8eaVps-6" style="edgeStyle=orthogonalEdgeStyle;rounded=0;orthogonalLoop=1;jettySize=auto;html=1;entryX=0.5;entryY=0;entryDx=0;entryDy=0;entryPerimeter=0;" edge="1" parent="1" source="EXQrBoEiACjpLb8eaVps-4" target="EXQrBoEiACjpLb8eaVps-5">
          <mxGeometry relative="1" as="geometry" />
        </mxCell>
        <mxCell id="EXQrBoEiACjpLb8eaVps-4" value="stelios&lt;br&gt;" style="strokeWidth=2;html=1;shape=mxgraph.flowchart.start_1;whiteSpace=wrap;" vertex="1" parent="1">
          <mxGeometry x="330" y="80" width="100" height="50" as="geometry" />
        </mxCell>
        <mxCell id="EXQrBoEiACjpLb8eaVps-8" style="edgeStyle=orthogonalEdgeStyle;rounded=0;orthogonalLoop=1;jettySize=auto;html=1;entryX=0.5;entryY=0;entryDx=0;entryDy=0;" edge="1" parent="1" source="EXQrBoEiACjpLb8eaVps-5" target="EXQrBoEiACjpLb8eaVps-7">
          <mxGeometry relative="1" as="geometry" />
        </mxCell>
        <mxCell id="EXQrBoEiACjpLb8eaVps-5" value="login" style="strokeWidth=2;html=1;shape=mxgraph.flowchart.decision;whiteSpace=wrap;" vertex="1" parent="1">
          <mxGeometry x="330" y="310" width="100" height="100" as="geometry" />
        </mxCell>
        <mxCell id="EXQrBoEiACjpLb8eaVps-7" value="" style="rounded=1;whiteSpace=wrap;html=1;absoluteArcSize=1;arcSize=14;strokeWidth=2;" vertex="1" parent="1">
          <mxGeometry x="180" y="460" width="90" height="80" as="geometry" />
        </mxCell>
      </root>
    </mxGraphModel>
  </diagram>
</mxfile>
